<svg width="1179" height="155" viewBox="0 0 1179 155" fill="none" xmlns="http://www.w3.org/2000/svg">
<rect y="6.10352e-05" width="1179" height="154" fill="#103593"/>
<path d="M413 1.49999L445.5 1.50011L471 1.5001L603 1.50012L767 1.50004L936 1.50004L1021.5 1.49994L741.5 155L639 155L570.5 155L545.5 155L515.5 155L413 155L355.5 155L329.5 155L295 155L353 1.5001L413 1.49999Z" fill="#1274CE"/>
<path d="M-0.500176 -1.00011L92.9999 -0.99991L146 -0.999889L276 -0.999834L407 -0.999848L480.5 -0.999855L634 -0.999951L339.5 156L125.5 156L75.4999 156L30 156L-0.500143 156L-0.500152 49L-0.500176 -1.00011Z" fill="#1DB5E4"/>
</svg>
