<svg width="126" height="24" viewBox="0 0 126 24" fill="none" xmlns="http://www.w3.org/2000/svg">
<path d="M13.12 20.28H13.44L21.472 0.599998H26.24L17.12 23H9.44L0.32 0.599998H5.088L13.12 20.28ZM30.8625 23H28.0625V12.8H30.8625V23ZM30.9625 10.1C30.9625 10.5 30.8225 10.8533 30.5425 11.16C30.2758 11.4533 29.9158 11.6 29.4625 11.6C29.0092 11.6 28.6425 11.4533 28.3625 11.16C28.0958 10.8533 27.9625 10.5 27.9625 10.1C27.9625 9.7 28.0958 9.35333 28.3625 9.06C28.6425 8.75333 29.0092 8.6 29.4625 8.6C29.9025 8.6 30.2625 8.75333 30.5425 9.06C30.8225 9.35333 30.9625 9.7 30.9625 10.1ZM41.6633 14H39.2633C38.3566 14 37.6633 14.2467 37.1833 14.74C36.7033 15.22 36.4633 15.94 36.4633 16.9V23H33.6633V16.9C33.6633 15.54 34.0899 14.4867 34.9433 13.74C35.8099 12.98 37.0499 12.6 38.6633 12.6H41.6633V14ZM44.1555 14H42.2555V12.6H44.1555V9.4H46.9555V12.6H50.0555V14H46.9555V19.2C46.9555 19.7067 47.0088 20.14 47.1155 20.5C47.2355 20.8467 47.3888 21.1333 47.5755 21.36C47.7755 21.5733 48.0021 21.7333 48.2555 21.84C48.5088 21.9467 48.7755 22 49.0555 22C49.4555 22 49.8421 21.94 50.2155 21.82C50.5888 21.6867 50.9021 21.5467 51.1555 21.4L51.7555 22.7C51.3555 22.9 50.8955 23.0667 50.3755 23.2C49.8688 23.3333 49.3621 23.4 48.8555 23.4C47.3488 23.4 46.1888 23.0267 45.3755 22.28C44.5621 21.5333 44.1555 20.5067 44.1555 19.2V14ZM52.7477 12.6H55.5477V18.9C55.5477 19.86 55.7877 20.5533 56.2677 20.98C56.7477 21.3933 57.441 21.6 58.3477 21.6H60.9477V12.6H63.7477V23H58.3477C56.441 23 55.0277 22.66 54.1077 21.98C53.201 21.2867 52.7477 20.26 52.7477 18.9V12.6ZM79.0563 10.5H73.6563V23H70.7563V10.5H65.3563V9H79.0563V10.5ZM86.5656 14H84.1656C83.259 14 82.5656 14.2467 82.0856 14.74C81.6056 15.22 81.3656 15.94 81.3656 16.9V23H78.5656V16.9C78.5656 15.54 78.9923 14.4867 79.8456 13.74C80.7123 12.98 81.9523 12.6 83.5656 12.6H86.5656V14ZM89.8523 19.7C89.8523 20.9667 90.619 21.6 92.1523 21.6H94.9523V17.8H92.1523C90.619 17.8 89.8523 18.4333 89.8523 19.7ZM94.9523 16.4C94.9523 15.44 94.699 14.7333 94.1923 14.28C93.699 13.8267 93.0523 13.6 92.2523 13.6C91.6523 13.6 91.0657 13.6933 90.4923 13.88C89.919 14.0533 89.4057 14.2933 88.9523 14.6L88.2523 13.4C88.5457 13.2 88.8657 13.0267 89.2123 12.88C89.5723 12.7333 89.939 12.6133 90.3123 12.52C90.6857 12.4133 91.0523 12.3333 91.4123 12.28C91.7857 12.2267 92.1323 12.2 92.4523 12.2C93.3057 12.2 94.059 12.3 94.7123 12.5C95.3657 12.7 95.919 12.9867 96.3723 13.36C96.8257 13.7333 97.1657 14.18 97.3923 14.7C97.6323 15.2067 97.7523 15.7733 97.7523 16.4V23H92.1523C90.339 23 88.999 22.7267 88.1323 22.18C87.279 21.6333 86.8523 20.8067 86.8523 19.7C86.8523 18.5933 87.279 17.7667 88.1323 17.22C88.999 16.6733 90.339 16.4 92.1523 16.4H94.9523ZM108.543 21.6V14H106.043C105.59 14 105.17 14.0733 104.783 14.22C104.41 14.3533 104.083 14.5733 103.803 14.88C103.536 15.1867 103.323 15.58 103.163 16.06C103.016 16.54 102.943 17.12 102.943 17.8C102.943 18.48 103.016 19.06 103.163 19.54C103.323 20.02 103.536 20.4133 103.803 20.72C104.083 21.0267 104.41 21.2533 104.783 21.4C105.17 21.5333 105.59 21.6 106.043 21.6H108.543ZM106.043 23C105.123 23 104.283 22.88 103.523 22.64C102.776 22.4 102.136 22.0533 101.603 21.6C101.07 21.1467 100.656 20.6 100.363 19.96C100.083 19.32 99.943 18.6 99.943 17.8C99.943 17 100.083 16.28 100.363 15.64C100.656 15 101.07 14.4533 101.603 14C102.136 13.5467 102.776 13.2 103.523 12.96C104.283 12.72 105.123 12.6 106.043 12.6H108.543V9H111.343V23H106.043ZM120.134 22C120.788 22 121.394 21.8867 121.954 21.66C122.528 21.4333 123.088 21.1133 123.634 20.7L124.434 21.9C124.181 22.1267 123.881 22.3333 123.534 22.52C123.201 22.7067 122.834 22.8667 122.434 23C122.048 23.12 121.641 23.2133 121.214 23.28C120.788 23.36 120.361 23.4 119.934 23.4C118.988 23.4 118.121 23.2733 117.334 23.02C116.561 22.78 115.901 22.4267 115.354 21.96C114.808 21.48 114.381 20.8933 114.074 20.2C113.781 19.5067 113.634 18.7067 113.634 17.8C113.634 16.9067 113.774 16.1133 114.054 15.42C114.348 14.7133 114.748 14.1267 115.254 13.66C115.774 13.18 116.388 12.82 117.094 12.58C117.801 12.3267 118.581 12.2 119.434 12.2C120.234 12.2 120.988 12.32 121.694 12.56C122.401 12.8 123.014 13.1533 123.534 13.62C124.054 14.0733 124.468 14.6267 124.774 15.28C125.081 15.9333 125.234 16.6733 125.234 17.5V18.9H116.694C116.854 20.0067 117.234 20.8 117.834 21.28C118.448 21.76 119.214 22 120.134 22ZM119.434 13.5C119.048 13.5 118.688 13.5733 118.354 13.72C118.021 13.8667 117.728 14.1 117.474 14.42C117.234 14.74 117.034 15.1533 116.874 15.66C116.728 16.1667 116.648 16.78 116.634 17.5H122.234C122.234 16.8067 122.154 16.2067 121.994 15.7C121.834 15.1933 121.621 14.78 121.354 14.46C121.101 14.1267 120.801 13.8867 120.454 13.74C120.121 13.58 119.781 13.5 119.434 13.5Z" fill="url(#paint0_linear_19_62)"/>
<defs>
<linearGradient id="paint0_linear_19_62" x1="0" y1="13.5" x2="138" y2="13.5" gradientUnits="userSpaceOnUse">
<stop stop-color="#1DB5E4"/>
<stop offset="1" stop-color="#146AB9"/>
</linearGradient>
</defs>
</svg>
